# xmcd CD database file
#
# Track frame offsets:
#	150
#	24952
#	36917
#	60320
#	94572
#	112755
#	135197
#	150750
#	200275
#	224035
#	269857
#
# Disc length: 3882 seconds
#
# Revision: 0
# Processed by: cddbd v1.4PL0 Copyright (c) Steve Scherf et al.
# Submitted via: CDex 1.40Beta9
#
DISCID=870f280b
DTITLE=Texas Twisters - Loud 'n' Proud
DYEAR=1994
DGENRE=Blues
TTITLE0=Mercury Blues
TTITLE1=You Ain't Nothing But Fine
TTITLE2=If You Laugh
TTITLE3=(I Just Wanna Make) Love To You
TTITLE4=Big Black Bag
TTITLE5=She's Tuff
TTITLE6=I Believe I'm In Love
TTITLE7=All Your Fault
TTITLE8=Twist Of The Knife
TTITLE9=Roadhouse Blues
TTITLE10=Sweet Little Lisa
EXTD=YEAR: 1994 ID3G: 0
EXTT0=
EXTT1=
EXTT2=
EXTT3=
EXTT4=
EXTT5=
EXTT6=
EXTT7=
EXTT8=
EXTT9=
EXTT10=
PLAYORDER=
